<?xml version="1.0" encoding="UTF-8" standalone="no"?>
<svg
   xmlns:dc="http://purl.org/dc/elements/1.1/"
   xmlns:cc="http://creativecommons.org/ns#"
   xmlns:rdf="http://www.w3.org/1999/02/22-rdf-syntax-ns#"
   xmlns:svg="http://www.w3.org/2000/svg"
   xmlns="http://www.w3.org/2000/svg"
   xmlns:sodipodi="http://sodipodi.sourceforge.net/DTD/sodipodi-0.dtd"
   xmlns:inkscape="http://www.inkscape.org/namespaces/inkscape"
   height="129mm"
   viewBox="0 0 27.874007 60.944954"
   width="59mm"
   version="1.1"
   id="svg119"
   sodipodi:docname="laser-cannon_1.svg"
   inkscape:version="1.0.1 (3bc2e813f5, 2020-09-07)">
  <metadata
     id="metadata125">
    <rdf:RDF>
      <cc:Work
         rdf:about="">
        <dc:format>image/svg+xml</dc:format>
        <dc:type
           rdf:resource="http://purl.org/dc/dcmitype/StillImage" />
        <dc:title></dc:title>
      </cc:Work>
    </rdf:RDF>
  </metadata>
  <defs
     id="defs123" />
  <sodipodi:namedview
     pagecolor="#ffffff"
     bordercolor="#666666"
     borderopacity="1"
     objecttolerance="10"
     gridtolerance="10"
     guidetolerance="10"
     inkscape:pageopacity="0"
     inkscape:pageshadow="2"
     inkscape:window-width="1920"
     inkscape:window-height="1017"
     id="namedview121"
     showgrid="false"
     units="mm"
     width="209mm"
     inkscape:zoom="1.5540715"
     inkscape:cx="256"
     inkscape:cy="215.67416"
     inkscape:window-x="-8"
     inkscape:window-y="-8"
     inkscape:window-maximized="1"
     inkscape:current-layer="Filled_outline" />
  <g
     id="Filled_outline"
     data-name="Filled outline"
     transform="rotate(90,32,32.999993)">
    <path
       d="m 40.5,55.622205 v -8.000006 h 6 c 11.597084,-0.02024 12.047956,1.93589 12,8.000006 z"
       fill="#b2510f"
       id="path88"
       sodipodi:nodetypes="ccccc"
       style="stroke-width:0.999998" />
    <path
       d="M 2.5,59.622208 0.50000002,57.622209 V 53.622203 H 6.5 l 3,2.000002 h 17 v 4.000003 z"
       fill="#e97424"
       id="path90"
       style="stroke-width:0.999998" />
    <path
       d="m 32.5,53.622203 h -6 v 6.000005 h 8 z"
       fill="#cc331f"
       id="path92"
       style="stroke-width:0.999998" />
    <path
       d="m 2.5,43.622198 -1.99999998,2.000004 v 3.999995 H 6.5 l 3,-1.999998 h 17 v -4.000001 z"
       fill="#e97424"
       id="path94"
       style="stroke-width:0.999998" />
    <path
       d="m 32.5,49.622197 h -6 v -5.999999 h 8 z"
       fill="#cc331f"
       id="path96"
       style="stroke-width:0.999998" />
    <path
       d="m 40.5,43.622198 h -6 l -2,5.999999 v 4.000006 l 2,6.000005 h 6 z"
       fill="#98a5a6"
       id="path98"
       style="stroke-width:0.999998" />
    <path
       d="m 52.5,55.622205 h -12 v 4.000003 l 12,1.999998 z"
       fill="#cc331f"
       id="path102"
       style="stroke-width:0.999998" />
    <path
       d="m 38.5,47.622199 h -2 l -4,1.999998 v 4.000006 l 4,2.000002 h 2 l -2,-4 z"
       fill="#fcf05a"
       id="path106"
       style="stroke-width:0.999998" />
    <path
       d="m 35.5,59.622208 h -18 l 2,3.999996 h 14 z"
       fill="#394d5c"
       id="path108"
       style="stroke-width:0.999998" />
    <path
       d="m 58.5,56.622204 h -5 v 5.000002 c -2.84e-4,0.617587 -0.554773,1.087284 -1.164,0.985992 L 47.5,61.802208 v 2.819995 h -2 v -3.152995 l -2,-0.333002 v 2.485998 h -2 V 60.802205 L 40.418,60.622207 H 39.5 v 1.999998 h -2 V 60.622207 H 36.118 L 34.4,64.069202 c -0.170226,0.340669 -0.519174,0.555079 -0.9,0.553001 h -14 c -0.379026,1.79e-4 -0.725575,-0.21395 -0.895,-0.553001 L 16.882,60.622207 H 2.5 C 2.2348052,60.622149 1.9804927,60.516754 1.793,60.329206 L -0.20699995,58.329198 C -0.39454934,58.14171 -0.49994333,57.887399 -0.49999993,57.622209 v -4.000006 c 0,-0.552286 0.44771528,-0.999999 0.99999995,-0.999999 H 6.5 c 0.1974794,3.06e-4 0.3904993,0.05874 0.555,0.168003 L 9.5,54.422198 v -1.799994 h 2 v 1.999998 h 2 v -1.999998 h 2 v 1.999998 h 2 v -1.999998 h 2 v 1.999998 h 2 v -1.999998 h 2 v 1.999998 h 2 v -0.999999 c 0,-0.552286 0.447715,-0.999999 1,-0.999999 h 5 v -2.000008 h -5 c -0.552285,0 -1,-0.447703 -1,-0.999999 v -0.999999 h -2 v 1.999998 h -2 v -1.999998 h -2 v 1.999998 h -2 v -1.999998 h -2 v 1.999998 h -2 v -1.999998 h -2 v 1.999998 h -2 v -1.79999 L 7.055,50.452199 C 6.8907216,50.562169 6.6976848,50.621301 6.5,50.622196 H 0.50000002 c -0.55228467,0 -0.99999995,-0.447703 -0.99999995,-0.999999 v -3.999995 c 5.66e-5,-0.265197 0.10545059,-0.519506 0.29299998,-0.707 L 1.793,42.915204 C 1.9804927,42.72765 2.2348052,42.622255 2.5,42.622197 44.151668,41.927043 41.390275,40.60956 41.5,43.773201 V 46.6222 c 17.864333,0.494533 18.021725,0.4866 18,9.000005 0,0.552283 -0.447715,0.999999 -1,0.999999 z M 35.221,58.622207 H 39.5 V 44.622199 h -4.279 l -1.009,3.026001 1.841,-0.921001 c 0.138839,-0.0692 0.291873,-0.105146 0.447,-0.104999 h 2 c 0.745667,-0.0042 1.233329,0.779968 0.9,1.446998 l -1.782,3.553007 1.782,3.552997 c 0.333329,0.667034 -0.154333,1.451087 -0.9,1.447002 h -2 c -0.155127,1.47e-4 -0.308161,-0.03578 -0.447,-0.105003 l -1.841,-0.920997 z m 0.384,-7.44701 1.277,-2.552999 H 36.736 L 33.5,50.240201 v 2.764003 l 3.236,1.617998 h 0.146 L 35.6,52.069203 c -0.140621,-0.281407 -0.140621,-0.612593 0,-0.894006 z M 25.5,56.622204 H 9.5 C 9.302521,56.621895 9.109501,56.563498 8.945,56.4542 L 6.2,54.622202 H 5.5 v 2.000002 h -2 v -2.000002 h -2 v 2.585996 l 1.414,1.414009 H 25.5 Z m -6.382,4.000003 1,1.999998 h 12.764 l 1,-1.999998 z M 27.5,54.622202 v 4.000005 h 5.612 l -1.333,-4.000005 z m 0,-6.000004 h 4.279 l 1.333,-3.999999 H 27.5 Z M 2.914,44.622199 1.5,46.036202 v 2.585996 h 2 V 46.6222 h 2 v 1.999998 H 6.2 L 8.948,46.790204 C 9.111649,46.681508 9.303543,46.623104 9.5,46.6222 h 16 v -2.000001 z m 38.586,14.153005 10,1.666001 v -3.819001 h -10 z m 0,-10.153006 v 6.000004 h 16 c 0,-5.851196 -5.206931,-6.000004 -16,-6.000004 z"
       id="path110"
       sodipodi:nodetypes="sccccccccccccccccccccccccccsscccccccccccccccccccssccsscccccccccccccccccccsscccccccscccccccccccccccccccccccccccccccccccccccccccccccccccccccccccccccccccccccccccc"
       style="stroke-width:0.999998" />
    <path
       d="m 51.5,46.6222 h 4 v 6.000004 h -2 v -4.000006 h -2 z"
       id="path112"
       style="stroke-width:0.999998" />
    <path
       d="m 43.5,52.622204 h 2 v -2.000008 h -2 z"
       id="path114"
       style="stroke-width:0.999998" />
    <path
       d="m 47.5,52.622204 h 2 v -2.000008 h -2 z"
       id="path116"
       style="stroke-width:0.999998" />
    <path
       d="m 40.5,55.622205 v -8.000006 h 6 v 0 c 11.039051,-1.996749 12,-1.100874 12,8.000006 z"
       fill="#b2510f"
       id="path144"
       sodipodi:nodetypes="cccccc"
       style="stroke-width:0.999998" />
    <path
       d="M 2.5,59.622208 0.50000002,57.622209 V 53.622203 H 6.5 l 3,2.000002 h 17 v 4.000003 z"
       fill="#e97424"
       id="path146"
       sodipodi:nodetypes="cccccccc"
       style="stroke-width:0.999998" />
    <path
       d="m 32.5,53.622203 h -6 v 6.000005 h 8 z"
       fill="#cc331f"
       id="path148"
       sodipodi:nodetypes="ccccc"
       style="stroke-width:0.999998" />
    <path
       d="m 2.5,43.622198 -1.99999998,2.000004 v 3.999995 H 6.5 l 3,-1.999998 h 17 v -4.000001 z"
       fill="#e97424"
       id="path150"
       sodipodi:nodetypes="cccccccc"
       style="stroke-width:0.999998" />
    <path
       d="m 32.5,49.622197 h -6 v -5.999999 h 8 z"
       fill="#cc331f"
       id="path152"
       sodipodi:nodetypes="ccccc"
       style="stroke-width:0.999998" />
    <path
       d="m 40.5,43.622198 h -6 l -2,5.999999 v 4.000006 l 2,6.000005 h 6 z"
       fill="#98a5a6"
       id="path154"
       sodipodi:nodetypes="ccccccc"
       style="stroke-width:0.999998" />
    <path
       d="m 52.5,55.622205 h -12 v 4.000003 l 12,1.999998 z"
       fill="#cc331f"
       id="path156"
       sodipodi:nodetypes="ccccc"
       style="stroke-width:0.999998" />
    <path
       d="m 38.5,47.622199 h -2 l -4,1.999998 v 4.000006 l 4,2.000002 h 2 l -2,-4 z"
       fill="#fcf05a"
       id="path158"
       sodipodi:nodetypes="cccccccc"
       style="stroke-width:0.999998" />
    <path
       d="m 35.5,59.622208 h -18 l 2,3.999996 h 14 z"
       fill="#394d5c"
       id="path160"
       sodipodi:nodetypes="ccccc"
       style="stroke-width:0.999998" />
    <path
       d="m 58.5,56.622204 h -5 v 5.000002 c -2.84e-4,0.617587 -0.554773,1.087284 -1.164,0.985992 L 47.5,61.802208 v 2.819995 h -2 v -3.152995 l -2,-0.333002 v 2.485998 h -2 V 60.802205 L 40.418,60.622207 H 39.5 v 1.999998 h -2 V 60.622207 H 36.118 L 34.4,64.069202 c -0.170226,0.340669 -0.519174,0.555079 -0.9,0.553001 h -14 c -0.379026,1.79e-4 -0.725575,-0.21395 -0.895,-0.553001 L 16.882,60.622207 H 2.5 C 2.2348052,60.622149 1.9804927,60.516754 1.793,60.329206 L -0.20699995,58.329198 C -0.39454934,58.14171 -0.49994333,57.887399 -0.49999993,57.622209 v -4.000006 c 0,-0.552286 0.44771528,-0.999999 0.99999995,-0.999999 H 6.5 c 0.1974794,3.06e-4 0.3904993,0.05874 0.555,0.168003 L 9.5,54.422198 v -1.799994 h 2 v 1.999998 h 2 v -1.999998 h 2 v 1.999998 h 2 v -1.999998 h 2 v 1.999998 h 2 v -1.999998 h 2 v 1.999998 h 2 v -0.999999 c 0,-0.552286 0.447715,-0.999999 1,-0.999999 h 5 v -2.000008 h -5 c -0.552285,0 -1,-0.447703 -1,-0.999999 v -0.999999 h -2 v 1.999998 h -2 v -1.999998 h -2 v 1.999998 h -2 v -1.999998 h -2 v 1.999998 h -2 v -1.999998 h -2 v 1.999998 h -2 v -1.79999 L 7.055,50.452199 C 6.8907216,50.562169 6.6976848,50.621301 6.5,50.622196 H 0.50000002 c -0.55228467,0 -0.99999995,-0.447703 -0.99999995,-0.999999 v -3.999995 c 5.66e-5,-0.265197 0.10545059,-0.519506 0.29299998,-0.707 L 1.793,42.915204 C 1.9804927,42.72765 2.2348052,42.622255 2.5,42.622197 44.151668,41.927043 41.390275,40.60956 41.5,43.773201 V 46.6222 c 18.185283,0.252638 17.960454,0.311876 18,9.000005 0,0.552283 -0.447715,0.999999 -1,0.999999 z M 35.221,58.622207 H 39.5 V 44.622199 h -4.279 l -1.009,3.026001 1.841,-0.921001 c 0.138839,-0.0692 0.291873,-0.105146 0.447,-0.104999 h 2 c 0.745667,-0.0042 1.233329,0.779968 0.9,1.446998 l -1.782,3.553007 1.782,3.552997 c 0.333329,0.667034 -0.154333,1.451087 -0.9,1.447002 h -2 c -0.155127,1.47e-4 -0.308161,-0.03578 -0.447,-0.105003 l -1.841,-0.920997 z m 0.384,-7.44701 1.277,-2.552999 H 36.736 L 33.5,50.240201 v 2.764003 l 3.236,1.617998 h 0.146 L 35.6,52.069203 c -0.140621,-0.281407 -0.140621,-0.612593 0,-0.894006 z M 25.5,56.622204 H 9.5 C 9.302521,56.621895 9.109501,56.563498 8.945,56.4542 L 6.2,54.622202 H 5.5 v 2.000002 h -2 v -2.000002 h -2 v 2.585996 l 1.414,1.414009 H 25.5 Z m -6.382,4.000003 1,1.999998 h 12.764 l 1,-1.999998 z M 27.5,54.622202 v 4.000005 h 5.612 l -1.333,-4.000005 z m 0,-6.000004 h 4.279 l 1.333,-3.999999 H 27.5 Z M 2.914,44.622199 1.5,46.036202 v 2.585996 h 2 V 46.6222 h 2 v 1.999998 H 6.2 L 8.948,46.790204 C 9.111649,46.681508 9.303543,46.623104 9.5,46.6222 h 16 v -2.000001 z m 38.586,14.153005 10,1.666001 v -3.819001 h -10 z m 16,-10.004198 -6,-0.148808 c -7.633143,-0.19894 -3.624058,-0.02103 -5,0 h -5 v 6.000004 l 17.161988,-2.49612 z"
       id="path162"
       sodipodi:nodetypes="sccccccccccccccccccccccccccsscccccccccccccccccccssccsscccccccccccccccccccsscccccccsccccccccccccccccccccccccccccccccccccccccccccccccccccccccccccccccccccccccccccccc"
       style="stroke-width:0.999998" />
    <path
       d="m 51.5,46.6222 h 4 v 6.000004 h -2 v -4.000006 h -2 z"
       id="path164"
       sodipodi:nodetypes="ccccccc"
       style="stroke-width:0.999998" />
    <path
       d="m 43.5,52.622204 h 2 v -2.000008 h -2 z"
       id="path166"
       sodipodi:nodetypes="ccccc"
       style="stroke-width:0.999998" />
    <path
       d="m 47.5,52.622204 h 2 v -2.000008 h -2 z"
       id="path168"
       sodipodi:nodetypes="ccccc"
       style="stroke-width:0.999998" />
    <path
       d="m 40.5,46.622231 v 8.000001 h 6 c 11.597084,0.02024 12.047956,-1.935885 12,-8.000001 z"
       fill="#b2510f"
       id="path181"
       sodipodi:nodetypes="ccccc"
       style="stroke-width:0.999998" />
    <path
       d="m 2.5,42.622227 -1.99999998,2 v 4.000002 H 6.5 l 3,-1.999998 h 17 v -4.000004 z"
       fill="#e97424"
       id="path183"
       style="stroke-width:0.999998" />
    <path
       d="m 32.5,48.622229 h -6 v -6.000002 h 8 z"
       fill="#cc331f"
       id="path185"
       style="stroke-width:0.999998" />
    <path
       d="M 2.5,58.622238 0.50000002,56.622234 v -4 H 6.5 l 3,1.999998 h 17 v 4.000006 z"
       fill="#e97424"
       id="path187"
       style="stroke-width:0.999998" />
    <path
       d="m 32.5,52.622234 h -6 v 6.000004 h 8 z"
       fill="#cc331f"
       id="path189"
       style="stroke-width:0.999998" />
    <path
       d="m 40.5,58.622238 h -6 l -2,-6.000004 v -4.000005 l 2,-6.000002 h 6 z"
       fill="#98a5a6"
       id="path191"
       style="stroke-width:0.999998" />
    <path
       d="m 52.5,46.622231 h -12 v -4.000004 l 12,-1.999998 z"
       fill="#cc331f"
       id="path193"
       style="stroke-width:0.999998" />
    <path
       d="m 38.5,54.622232 h -2 l -4,-1.999998 v -4.000005 l 4,-1.999998 h 2 l -2,3.999995 z"
       fill="#fcf05a"
       id="path195"
       style="stroke-width:0.999998" />
    <path
       d="m 35.5,42.622227 h -18 l 2,-3.999995 h 14 z"
       fill="#394d5c"
       id="path197"
       style="stroke-width:0.999998" />
    <path
       d="m 58.5,45.622232 h -5 v -5.000003 c -2.84e-4,-0.617586 -0.554773,-1.087288 -1.164,-0.985996 L 47.5,40.442227 v -2.819994 h -2 v 3.152994 l -2,0.333002 v -2.485997 h -2 v 2.819994 l -1.082,0.180002 H 39.5 v -1.999997 h -2 v 1.999997 H 36.118 L 34.4,38.175233 c -0.170226,-0.340672 -0.519174,-0.555079 -0.9,-0.553 h -14 c -0.379026,-1.8e-4 -0.725575,0.213947 -0.895,0.553 l -1.723,3.446995 H 2.5 c -0.2651948,5.8e-5 -0.5195073,0.105454 -0.707,0.292998 l -1.99999995,2.000008 c -0.18754939,0.187488 -0.29294338,0.441803 -0.29299998,0.706993 v 4.000002 c 0,0.552285 0.44771528,0.999999 0.99999995,0.999999 H 6.5 c 0.1974794,-3.07e-4 0.3904993,-0.05874 0.555,-0.168 L 9.5,47.822235 v 1.799993 h 2 V 47.62223 h 2 v 1.999998 h 2 V 47.62223 h 2 v 1.999998 h 2 V 47.62223 h 2 v 1.999998 h 2 V 47.62223 h 2 v 0.999999 c 0,0.552285 0.447715,0.999999 1,0.999999 h 5 v 2.000006 h -5 c -0.552285,0 -1,0.447709 -1,1 v 0.999999 h -2 v -1.999999 h -2 v 1.999999 h -2 v -1.999999 h -2 v 1.999999 h -2 v -1.999999 h -2 v 1.999999 h -2 v -1.999999 h -2 v 1.799995 L 7.055,51.792237 C 6.8907216,51.682265 6.6976848,51.623135 6.5,51.622234 H 0.50000002 c -0.55228467,0 -0.99999995,0.447709 -0.99999995,1 v 4 c 5.66e-5,0.265196 0.10545059,0.519502 0.29299998,0.706995 L 1.793,59.329227 c 0.1874927,0.187558 0.4418052,0.292954 0.707,0.293012 41.651668,0.695154 38.890275,2.012636 39,-1.151004 v -2.849 c 17.864333,-0.494536 18.021725,-0.486599 18,-9.000004 0,-0.552284 -0.447715,-0.999999 -1,-0.999999 z M 35.221,43.622228 H 39.5 v 14.000009 h -4.279 l -1.009,-3.026005 1.841,0.921001 c 0.138839,0.06921 0.291873,0.105145 0.447,0.105002 h 2 c 0.745667,0.0042 1.233329,-0.779968 0.9,-1.447001 L 37.618,50.622226 39.4,47.069229 C 39.733329,46.4022 39.245667,45.618146 38.5,45.622232 h -2 c -0.155127,-1.47e-4 -0.308161,0.03578 -0.447,0.104998 l -1.841,0.921002 z m 0.384,7.447007 1.277,2.552998 H 36.736 L 33.5,52.004231 v -2.763999 l 3.236,-1.618002 h 0.146 L 35.6,50.175228 c -0.140621,0.281412 -0.140621,0.612597 0,0.894007 z M 25.5,45.622232 H 9.5 C 9.302521,45.62254 9.109501,45.680942 8.945,45.79023 L 6.2,47.62223 H 5.5 v -1.999998 h -2 v 1.999998 h -2 V 45.036233 L 2.914,43.622228 H 25.5 Z m -6.382,-4.000004 1,-1.999997 h 12.764 l 1,1.999997 z M 27.5,47.62223 v -4.000002 h 5.612 l -1.333,4.000002 z m 0,6.000003 h 4.279 l 1.333,4.000004 H 27.5 Z M 2.914,57.622237 1.5,56.20823 v -2.585997 h 2 v 2.000002 h 2 v -2.000002 h 0.7 l 2.748,1.831995 c 0.163649,0.108699 0.355543,0.167104 0.552,0.168007 h 16 v 2.000002 z M 41.5,43.469231 51.5,41.80323 v 3.819002 h -10 z m 0,10.153002 V 47.62223 h 16 c 0,5.851195 -5.206931,6.000003 -16,6.000003 z"
       id="path199"
       sodipodi:nodetypes="sccccccccccccccccccccccccccsscccccccccccccccccccssccsscccccccccccccccccccsscccccccscccccccccccccccccccccccccccccccccccccccccccccccccccccccccccccccccccccccccccc"
       style="stroke-width:0.999998" />
    <path
       d="m 51.5,55.622235 h 4 v -6.000007 h -2 v 4.000005 h -2 z"
       id="path201"
       style="stroke-width:0.999998" />
    <path
       d="m 43.5,49.622228 h 2 v 2.000006 h -2 z"
       id="path203"
       style="stroke-width:0.999998" />
    <path
       d="m 47.5,49.622228 h 2 v 2.000006 h -2 z"
       id="path205"
       style="stroke-width:0.999998" />
    <path
       d="m 40.5,46.622231 v 8.000001 h 6 v 0 c 11.039051,1.996751 12,1.100878 12,-8.000001 z"
       fill="#b2510f"
       id="path207"
       sodipodi:nodetypes="cccccc"
       style="stroke-width:0.999998" />
    <path
       d="m 2.5,42.622227 -1.99999998,2 v 4.000002 H 6.5 l 3,-1.999998 h 17 v -4.000004 z"
       fill="#e97424"
       id="path209"
       sodipodi:nodetypes="cccccccc"
       style="stroke-width:0.999998" />
    <path
       d="m 32.5,48.622229 h -6 v -6.000002 h 8 z"
       fill="#cc331f"
       id="path211"
       sodipodi:nodetypes="ccccc"
       style="stroke-width:0.999998" />
    <path
       d="M 2.5,58.622238 0.50000002,56.622234 v -4 H 6.5 l 3,1.999998 h 17 v 4.000006 z"
       fill="#e97424"
       id="path213"
       sodipodi:nodetypes="cccccccc"
       style="stroke-width:0.999998" />
    <path
       d="m 32.5,52.622234 h -6 v 6.000004 h 8 z"
       fill="#cc331f"
       id="path215"
       sodipodi:nodetypes="ccccc"
       style="stroke-width:0.999998" />
    <path
       d="m 40.5,58.622238 h -6 l -2,-6.000004 v -4.000005 l 2,-6.000002 h 6 z"
       fill="#98a5a6"
       id="path217"
       sodipodi:nodetypes="ccccccc"
       style="stroke-width:0.999998" />
    <path
       d="m 52.5,46.622231 h -12 v -4.000004 l 12,-1.999998 z"
       fill="#cc331f"
       id="path219"
       sodipodi:nodetypes="ccccc"
       style="stroke-width:0.999998" />
    <path
       d="m 38.5,54.622232 h -2 l -4,-1.999998 v -4.000005 l 4,-1.999998 h 2 l -2,3.999995 z"
       fill="#fcf05a"
       id="path221"
       sodipodi:nodetypes="cccccccc"
       style="stroke-width:0.999998" />
    <path
       d="m 35.5,42.622227 h -18 l 2,-3.999995 h 14 z"
       fill="#394d5c"
       id="path223"
       sodipodi:nodetypes="ccccc"
       style="stroke-width:0.999998" />
    <path
       d="m 58.5,45.622232 h -5 v -5.000003 c -2.84e-4,-0.617586 -0.554773,-1.087288 -1.164,-0.985996 L 47.5,40.442227 v -2.819994 h -2 v 3.152994 l -2,0.333002 v -2.485997 h -2 v 2.819994 l -1.082,0.180002 H 39.5 v -1.999997 h -2 v 1.999997 H 36.118 L 34.4,38.175233 c -0.170226,-0.340672 -0.519174,-0.555079 -0.9,-0.553 h -14 c -0.379026,-1.8e-4 -0.725575,0.213947 -0.895,0.553 l -1.723,3.446995 H 2.5 c -0.2651948,5.8e-5 -0.5195073,0.105454 -0.707,0.292998 l -1.99999995,2.000008 c -0.18754939,0.187488 -0.29294338,0.441803 -0.29299998,0.706993 v 4.000002 c 0,0.552285 0.44771528,0.999999 0.99999995,0.999999 H 6.5 c 0.1974794,-3.07e-4 0.3904993,-0.05874 0.555,-0.168 L 9.5,47.822235 v 1.799993 h 2 V 47.62223 h 2 v 1.999998 h 2 V 47.62223 h 2 v 1.999998 h 2 V 47.62223 h 2 v 1.999998 h 2 V 47.62223 h 2 v 0.999999 c 0,0.552285 0.447715,0.999999 1,0.999999 h 5 v 2.000006 h -5 c -0.552285,0 -1,0.447709 -1,1 v 0.999999 h -2 v -1.999999 h -2 v 1.999999 h -2 v -1.999999 h -2 v 1.999999 h -2 v -1.999999 h -2 v 1.999999 h -2 v -1.999999 h -2 v 1.799995 L 7.055,51.792237 C 6.8907216,51.682265 6.6976848,51.623135 6.5,51.622234 H 0.50000002 c -0.55228467,0 -0.99999995,0.447709 -0.99999995,1 v 4 c 5.66e-5,0.265196 0.10545059,0.519502 0.29299998,0.706995 L 1.793,59.329227 c 0.1874927,0.187558 0.4418052,0.292954 0.707,0.293012 41.651668,0.695154 38.890275,2.012636 39,-1.151004 v -2.849 c 16.635966,1.770074 17.960454,-0.311876 18,-9.000004 0,-0.552284 -0.447715,-0.999999 -1,-0.999999 z M 35.221,43.622228 H 39.5 v 14.000009 h -4.279 l -1.009,-3.026005 1.841,0.921001 c 0.138839,0.06921 0.291873,0.105145 0.447,0.105002 h 2 c 0.745667,0.0042 1.233329,-0.779968 0.9,-1.447001 L 37.618,50.622226 39.4,47.069229 C 39.733329,46.4022 39.245667,45.618146 38.5,45.622232 h -2 c -0.155127,-1.47e-4 -0.308161,0.03578 -0.447,0.104998 l -1.841,0.921002 z m 0.384,7.447007 1.277,2.552998 H 36.736 L 33.5,52.004231 v -2.763999 l 3.236,-1.618002 h 0.146 L 35.6,50.175228 c -0.140621,0.281412 -0.140621,0.612597 0,0.894007 z M 25.5,45.622232 H 9.5 C 9.302521,45.62254 9.109501,45.680942 8.945,45.79023 L 6.2,47.62223 H 5.5 v -1.999998 h -2 v 1.999998 h -2 V 45.036233 L 2.914,43.622228 H 25.5 Z m -6.382,-4.000004 1,-1.999997 h 12.764 l 1,1.999997 z M 27.5,47.62223 v -4.000002 h 5.612 l -1.333,4.000002 z m 0,6.000003 h 4.279 l 1.333,4.000004 H 27.5 Z M 2.914,57.622237 1.5,56.20823 v -2.585997 h 2 v 2.000002 h 2 v -2.000002 h 0.7 l 2.748,1.831995 c 0.163649,0.108699 0.355543,0.167104 0.552,0.168007 h 16 v 2.000002 z M 41.5,43.469231 51.5,41.80323 v 3.819002 h -10 z m 16,10.004194 -6,0.148808 c -7.633143,0.198939 -3.624058,0.02103 -5,0 h -5 V 47.62223 h 16 z"
       id="path225"
       sodipodi:nodetypes="sccccccccccccccccccccccccccsscccccccccccccccccccssccsscccccccccccccccccccsscccccccsccccccccccccccccccccccccccccccccccccccccccccccccccccccccccccccccccccccccccccccc"
       style="stroke-width:0.999998" />
    <path
       d="m 51.5,55.622235 h 4 v -6.000007 h -2 v 4.000005 h -2 z"
       id="path227"
       sodipodi:nodetypes="ccccccc"
       style="stroke-width:0.999998" />
    <path
       d="m 43.5,49.622228 h 2 v 2.000006 h -2 z"
       id="path229"
       sodipodi:nodetypes="ccccc"
       style="stroke-width:0.999998" />
    <path
       d="m 47.5,49.622228 h 2 v 2.000006 h -2 z"
       id="path231"
       sodipodi:nodetypes="ccccc"
       style="stroke-width:0.999998" />
  </g>
</svg>
