<svg id="Capa_1" enable-background="new 0 0 512 512" height="512" viewBox="0 0 512 512" width="512" xmlns="http://www.w3.org/2000/svg"><g><g><g><g><g><g><g><g><g><circle cx="256" cy="256" fill="#00d65b" r="256"/></g></g></g></g></g></g></g></g><path d="m510.481 284.047-28.047-28.047-47.262 11.362-139.091-139.091-129.013 29.973-29.973-29.973-29.973 29.973 93.222 93.222-11.184 5.124-57.277-57.277-65.159 113.375 92.516 92.516-38.435 16.279 85.745 85.745c16 3.131 32.533 4.772 49.45 4.772 131.907 0 240.512-99.763 254.481-227.953z" fill="#08af4b"/><g><path d="m107.122 216.905h78.19v78.19h-78.19z" fill="#fa0"/></g><g><path d="m107.122 255.958h78.19v39.137h-78.19z" fill="#ff9500"/></g><g><path d="m353.638 312.688h-193.086v-113.376h193.086c32.894 0 64.946 10.396 91.577 29.704l37.219 26.984-37.219 26.984c-26.631 19.307-58.684 29.704-91.577 29.704z" fill="#ffce00"/></g><g><path d="m160.552 255.958v56.73h193.086c32.894 0 64.946-10.396 91.577-29.704l37.219-26.984z" fill="#fdba12"/></g><g><path d="m66.724 199.312h65.158v113.375h-65.158z" fill="#ffce00"/></g><g><path d="m66.724 255.958h65.158v56.73h-65.158z" fill="#fdba12"/></g><g><path d="m281.746 199.312h39.747v113.375h-39.747z" fill="#fa0"/></g><g><path d="m281.746 255.958h39.747v56.73h-39.747z" fill="#ff9500"/></g><g><path d="m167.068 128.271h129.013v29.973h-129.013z" fill="#fff"/></g><g><path d="m107.122 128.271h29.973v29.973h-29.973z" fill="#fff"/></g><g><path d="m273.276 343.293h129.013v29.973h-129.013z" fill="#e9edf5"/></g><g><path d="m120.805 391.51h64.507v29.973h-64.507z" fill="#e9edf5"/></g><g><path d="m201.602 343.293h29.973v29.973h-29.973z" fill="#e9edf5"/></g></g></svg>