<?xml version="1.0" encoding="UTF-8" standalone="no"?>
<svg
   xmlns:dc="http://purl.org/dc/elements/1.1/"
   xmlns:cc="http://creativecommons.org/ns#"
   xmlns:rdf="http://www.w3.org/1999/02/22-rdf-syntax-ns#"
   xmlns:svg="http://www.w3.org/2000/svg"
   xmlns="http://www.w3.org/2000/svg"
   xmlns:sodipodi="http://sodipodi.sourceforge.net/DTD/sodipodi-0.dtd"
   xmlns:inkscape="http://www.inkscape.org/namespaces/inkscape"
   height="490pt"
   viewBox="0 -12 512 490"
   width="512pt"
   version="1.1"
   id="svg102"
   sodipodi:docname="meteor_basic.svg"
   inkscape:version="1.0.1 (3bc2e813f5, 2020-09-07)">
  <metadata
     id="metadata108">
    <rdf:RDF>
      <cc:Work
         rdf:about="">
        <dc:format>image/svg+xml</dc:format>
        <dc:type
           rdf:resource="http://purl.org/dc/dcmitype/StillImage" />
        <dc:title></dc:title>
      </cc:Work>
    </rdf:RDF>
  </metadata>
  <defs
     id="defs106" />
  <sodipodi:namedview
     pagecolor="#ffffff"
     bordercolor="#666666"
     borderopacity="1"
     objecttolerance="10"
     gridtolerance="10"
     guidetolerance="10"
     inkscape:pageopacity="0"
     inkscape:pageshadow="2"
     inkscape:window-width="1267"
     inkscape:window-height="1040"
     id="namedview104"
     showgrid="false"
     inkscape:zoom="1.2114258"
     inkscape:cx="341.33333"
     inkscape:cy="341.33333"
     inkscape:window-x="130"
     inkscape:window-y="0"
     inkscape:window-maximized="0"
     inkscape:current-layer="svg102" />
  <path
     d="m 471.62891,204.71875 -35.55079,-35.55469 c -7.51562,-7.51562 -11.73828,-17.71093 -11.73828,-28.33984 v -23.07031 c 0,-24.73438 -14.22656,-47.265629 -36.55859,-57.898441 L 290.33984,13.453125 C 267.73047,2.6875 243.00781,-2.8984379 217.96484,-2.8984379 h -28.46093 c -17.64063,0 -33.20704,11.5351569 -38.34375,28.4140629 L 114.07031,147.38281 c -6.16406,20.25 -24.843748,34.08985 -46.015622,34.08985 H 47.582031 C 25.445312,181.47266 7.5,199.41797 7.5,221.55469 v 41.6914 c 0,29.76563 11.824219,58.3086 32.871094,79.35547 l 64.699216,64.69922 c 12.51953,12.52344 32.82422,12.52344 45.34375,0 l 17.125,-17.12109 c 15.65235,-15.65625 41.02735,-15.65625 56.67969,0 l 62.51562,62.51562 c 22.8711,22.86719 59.94922,22.86719 82.82032,0 l 21.35547,-21.35937 c 16.25,-16.2461 42.58984,-16.2461 58.83593,0 l 0.0156,0.0156 c 12.52344,12.51953 32.82422,12.51953 45.34765,0 6.01172,-6.01562 9.39063,-14.17187 9.39063,-22.67578 V 284.07422 c 0,-29.76563 -11.82422,-58.30859 -32.87109,-79.35547 z m 0,0"
     fill="#d19a6e"
     id="path60" />
  <path
     d="M 500.05078,416.48438 H 472.4375 c -2.13281,0 -4.08203,-0.73829 -5.35156,-2.02735 -12.44141,-12.61328 -29.04297,-19.5625 -46.75391,-19.5625 -2.60547,0 -5.25391,0.15235 -7.86719,0.45703 -14.43359,1.67578 -28.58984,8.80078 -39.85156,20.06641 l -18.88281,18.88281 c -6.16797,6.16406 -13.64453,10.07422 -21.05078,11.00391 -1.50782,0.1875 -3.03516,0.28515 -4.53516,0.28515 -9.21875,0 -17.88672,-3.58984 -24.40234,-10.10937 l -61.01953,-61.01953 c -11.59375,-11.59375 -26.14453,-18.70313 -40.97657,-20.01953 -1.96484,-0.17578 -3.92187,-0.26172 -5.86718,-0.26172 l -1.01172,0.008 -1.10938,0.008 c -24.99609,0 -46.76562,-12.84765 -56.82031,-33.53125 l -35.75391,-73.55078 c -9.644528,-19.84375 -4.187496,-43.9375 13.26954,-58.58984 10.6914,-8.96875 18.51171,-20.84766 22.62109,-34.35156 L 183.65234,1.640625 184.92578,-2.5273439 C 169.23047,-0.71874992 155.84375,10.121094 151.16016,25.511719 L 114.07031,147.37891 c -6.16406,20.2539 -24.843748,34.09375 -46.011716,34.09375 H 47.582031 C 25.445312,181.47266 7.5,199.41797 7.5,221.55469 v 41.6914 c 0,29.76172 11.824219,58.3086 32.871094,79.35547 l 64.699216,64.69922 c 12.51953,12.51953 32.82422,12.51953 45.34375,0 l 17.125,-17.125 c 15.65235,-15.65234 41.02735,-15.65234 56.67969,0 l 62.51562,62.51563 c 22.8711,22.87109 59.94922,22.87109 82.82032,0 l 21.35547,-21.35547 c 16.25,-16.25 42.58984,-16.25 58.83593,0 l 0.0156,0.0117 c 12.51953,12.52343 32.82422,12.52343 45.34375,0 4.1289,-4.125 6.90625,-9.29688 8.30859,-14.86328 z m 0,0"
     fill="#c38c66"
     id="path62" />
  <path
     d="m 256,213.33203 c 0,22.13672 -17.94531,40.07813 -40.08203,40.07813 -22.13672,0 -40.07813,-17.94141 -40.07813,-40.07813 0,-22.13672 17.94141,-40.08203 40.07813,-40.08203 0,0 40.08203,17.94531 40.08203,40.08203 z m 0,0"
     fill="#b57f5f"
     id="path64" />
  <path
     d="m 215.91797,173.25 c -15.20313,0 -28.27344,8.56641 -35.06641,21.04688 5.6875,-3.09766 12.10547,-5.01563 19.03516,-5.01563 22.13672,0 40.08203,17.94531 40.08203,40.08203 0,6.92969 -1.91797,13.34766 -5.01563,19.03516 C 247.43359,241.60547 256,228.53516 256,213.33203 256,191.19531 238.05469,173.25 215.91797,173.25 Z m 0,0"
     fill="#9f6e50"
     id="path66" />
  <g
     fill="#b57f5f"
     id="g76"
     transform="translate(0,-10.5)">
    <path
       d="m 384.25781,215.81641 c 0,8.85156 -7.17578,16.03125 -16.03125,16.03125 -8.85547,0 -16.03125,-7.17969 -16.03125,-16.03125 0,-8.85547 7.17578,-16.03516 16.03125,-16.03516 8.85547,0 16.03125,7.17969 16.03125,16.03516 z m 0,0"
       id="path68" />
    <path
       d="m 147.78125,308 c 0,11.06641 -8.97266,20.03906 -20.03906,20.03906 -11.06641,0 -20.03906,-8.97265 -20.03906,-20.03906 0,-11.06641 8.97265,-20.03906 20.03906,-20.03906 11.0664,0 20.03906,8.97265 20.03906,20.03906 z m 0,0"
       id="path70" />
    <path
       d="m 440.37109,336.05469 c -22.13672,0 -40.08203,-17.94532 -40.08203,-40.07813 0,22.13281 -17.94531,40.07813 -40.07812,40.07813 22.13281,0 40.07812,17.94531 40.07812,40.08203 0,-22.13672 17.94532,-40.08203 40.08203,-40.08203 z m 0,0"
       id="path72" />
    <path
       d="m 312.11328,111.60547 c -17.71094,0 -32.06641,-14.35547 -32.06641,-32.066408 0,17.710938 -14.35546,32.066408 -32.0625,32.066408 17.70704,0 32.0625,14.35547 32.0625,32.0664 0,-17.71093 14.35547,-32.0664 32.06641,-32.0664 z m 0,0"
       id="path74" />
  </g>
  <path
     d="m 476.93359,199.30859 c -2.92968,-2.92578 -7.67968,-2.92578 -10.60547,0 -2.92968,2.92969 -2.92968,7.67969 0,10.60547 C 486.10547,229.69531 497,255.99609 497,283.96875 v 124.60156 c 0,6.5625 -2.55469,12.73047 -7.19531,17.3711 -9.57813,9.57812 -25.16016,9.57812 -34.75391,-0.0117 -9.27344,-9.27735 -21.60547,-14.38281 -34.72266,-14.38281 -13.11328,0 -25.44531,5.10546 -34.71875,14.38281 L 364.25,447.28516 c -19.90625,19.91015 -52.30078,19.91015 -72.21094,0 l -62.51562,-62.51563 c -18.55078,-18.55078 -48.73828,-18.55078 -67.28907,0 l -17.125,17.125 c -4.63671,4.64063 -10.80859,7.19531 -17.36718,7.19531 -6.5625,0 -12.73047,-2.55468 -17.3711,-7.19531 l -9.40625,-9.41015 c -2.929684,-2.92579 -7.679684,-2.92579 -10.609371,0 -2.925781,2.92968 -2.925781,7.67968 0,10.60937 L 99.765625,412.5 c 7.472655,7.47266 17.406245,11.58984 27.976565,11.58984 10.5664,0 20.5039,-4.11718 27.97656,-11.58984 l 17.12109,-17.12109 c 12.70703,-12.70313 33.375,-12.70313 46.07813,0 l 62.51562,62.51562 c 12.47657,12.47656 29.06641,19.34766 46.71094,19.34766 17.64844,0 34.23828,-6.8711 46.71484,-19.34766 l 21.35547,-21.35937 c 6.44141,-6.44141 15.00782,-9.98828 24.11719,-9.98828 9.10938,0 17.67188,3.54687 24.12891,10.0039 15.42578,15.42578 40.52343,15.42188 55.94922,0 C 507.88281,429.07422 512,419.14063 512,408.57422 V 283.96875 c 0,-31.98047 -12.45313,-62.04687 -35.06641,-84.66016 z m 0,0"
     id="path78" />
  <path
     d="M 45.671875,337.19531 C 25.894531,317.41406 15,291.11719 15,263.14453 v -41.69531 c 0,-17.96484 14.617188,-32.57813 32.582031,-32.57813 h 20.476563 c 24.636718,0 46.011716,-15.83984 53.187496,-39.41015 L 158.33594,27.59375 C 162.53906,13.78125 175.0625,4.5 189.50391,4.5 h 28.46093 c 23.77344,0 47.6836,5.402344 69.14844,15.621094 l 97.44141,46.402344 c 19.60937,9.335937 32.28515,29.406252 32.28515,51.128902 v 23.06641 c 0,12.71094 4.94532,24.66016 13.9336,33.64453 l 12.3125,12.3125 c 2.92578,2.92578 7.67578,2.92578 10.60547,0 2.92578,-2.92969 2.92578,-7.67969 0,-10.60937 l -12.3125,-12.3086 c -6.15235,-6.15234 -9.53907,-14.33593 -9.53907,-23.03906 v -23.06641 c 0,-27.472652 -16.03125,-52.859371 -40.83593,-64.671871 L 293.5625,6.582031 C 270.09766,-4.5937499 243.95703,-10.5 217.96484,-10.5 h -28.46093 c -21.08594,0 -39.37891,13.554688 -45.51954,33.726562 L 106.89453,145.09375 c -5.23828,17.21484 -20.847655,28.77734 -38.835936,28.77734 H 47.582031 C 21.34375,173.87109 0,195.21484 0,221.44922 v 41.69531 c 0,31.97656 12.453125,62.04297 35.066406,84.65625 l 31.242188,31.24219 c 1.464844,1.46484 3.382812,2.19531 5.300781,2.19531 1.921875,0 3.839844,-0.73047 5.304687,-2.19531 2.929688,-2.92969 2.929688,-7.67969 0,-10.60547 z m 0,0"
     id="path80" />
  <path
     d="m 100.20312,297.60547 c 0,15.18359 12.35157,27.53906 27.53907,27.53906 15.1875,0 27.53906,-12.35547 27.53906,-27.53906 0,-15.1875 -12.35156,-27.54297 -27.53906,-27.54297 -15.1875,0 -27.53907,12.35547 -27.53907,27.54297 z m 40.07813,0 c 0,6.91406 -5.625,12.53906 -12.53906,12.53906 -6.91797,0 -12.54297,-5.625 -12.54297,-12.53906 0,-6.91797 5.625,-12.54297 12.54297,-12.54297 6.91406,0 12.53906,5.625 12.53906,12.54297 z m 0,0"
     id="path82" />
  <path
     d="m 391.75781,205.41797 c 0,-12.97656 -10.55859,-23.53125 -23.53125,-23.53125 -12.97656,0 -23.53515,10.55859 -23.53515,23.53125 0,12.97656 10.55859,23.53125 23.53515,23.53125 12.97656,0 23.53125,-10.55469 23.53125,-23.53125 z m -32.0664,0 c 0,-4.70313 3.82812,-8.53125 8.53515,-8.53125 4.70313,0 8.53125,3.82812 8.53125,8.53125 0,4.70312 -3.82812,8.53125 -8.53125,8.53125 -4.70703,0 -8.53515,-3.82813 -8.53515,-8.53125 z m 0,0"
     id="path84" />
  <path
     d="m 215.91797,261.01563 c 26.23828,0 47.58203,-21.34375 47.58203,-47.58204 0,-6.62109 -1.33594,-13.03515 -3.97656,-19.0625 -1.66016,-3.79296 -6.08203,-5.52343 -9.875,-3.86328 -3.79688,1.66407 -5.52735,6.08594 -3.86328,9.87891 1.80078,4.11719 2.71484,8.50781 2.71484,13.04687 0,17.96485 -14.61719,32.58204 -32.58203,32.58204 -17.96485,0 -32.57813,-14.61719 -32.57813,-32.58204 0,-17.96484 14.61328,-32.57812 32.57813,-32.57812 2.19922,0 4.39453,0.21875 6.52344,0.65234 4.0664,0.82032 8.01953,-1.80078 8.84375,-5.85937 0.82421,-4.0586 -1.80079,-8.01953 -5.85938,-8.84375 -3.10937,-0.62891 -6.30859,-0.94922 -9.50781,-0.94922 -26.23438,0 -47.58203,21.34375 -47.58203,47.57812 0,26.23829 21.34765,47.58204 47.58203,47.58204 z m 0,0"
     id="path86" />
  <path
     d="m 360.21094,333.16016 c 17.96484,0 32.57812,14.61718 32.57812,32.58203 0,4.14062 3.35938,7.5 7.5,7.5 4.14453,0 7.5,-3.35938 7.5,-7.5 0,-17.96485 14.61719,-32.58203 32.58203,-32.58203 4.14063,0 7.5,-3.35547 7.5,-7.5 0,-4.14063 -3.35937,-7.5 -7.5,-7.5 -17.96484,0 -32.58203,-14.61328 -32.58203,-32.58203 0,-4.14063 -3.35547,-7.5 -7.5,-7.5 -4.14062,0 -7.5,3.35937 -7.5,7.5 0,17.96875 -14.61328,32.58203 -32.57812,32.58203 -4.14453,0 -7.5,3.35937 -7.5,7.5 0,4.14453 3.35547,7.5 7.5,7.5 z m 40.07812,-21.96485 c 3.72266,5.80078 8.66406,10.7461 14.46485,14.46485 -5.80079,3.72265 -10.74219,8.66406 -14.46485,14.46484 -3.71875,-5.80078 -8.66015,-10.74219 -14.46094,-14.46484 5.80079,-3.71875 10.74219,-8.66407 14.46094,-14.46485 z m 0,0"
     id="path88" />
  <path
     d="m 319.61328,101.21094 c 0,-4.14453 -3.35937,-7.5 -7.5,-7.5 -13.54687,0 -24.5625,-11.02344 -24.5625,-24.566409 0,-4.140625 -3.35937,-7.5 -7.5,-7.5 -4.14453,0 -7.5,3.359375 -7.5,7.5 0,13.546875 -11.02344,24.566409 -24.56641,24.566409 -4.14062,0 -7.5,3.35547 -7.5,7.5 0,4.14062 3.35938,7.5 7.5,7.5 13.54688,0 24.56641,11.01953 24.56641,24.5625 0,4.14062 3.35547,7.5 7.5,7.5 4.14063,0 7.5,-3.35938 7.5,-7.5 0,-13.54297 11.01953,-24.5625 24.5625,-24.5625 4.14063,0 7.5,-3.35938 7.5,-7.5 z m -39.56641,8.91015 c -2.47656,-3.42187 -5.48828,-6.43359 -8.91015,-8.91015 3.42187,-2.48047 6.43359,-5.49219 8.91015,-8.91406 2.48047,3.42187 5.48829,6.43359 8.91407,8.91406 -3.42578,2.47656 -6.4336,5.48828 -8.91407,8.91015 z m 0,0"
     id="path90" />
  <path
     d="m 280.04687,373.24219 c 4.14454,0 7.5,-3.35938 7.5,-7.5 v -8.53125 h 8.53125 c 4.14454,0 7.5,-3.35938 7.5,-7.5 0,-4.14453 -3.35546,-7.5 -7.5,-7.5 h -8.53125 v -8.53516 c 0,-4.14062 -3.35546,-7.5 -7.5,-7.5 -4.14062,0 -7.5,3.35938 -7.5,7.5 v 8.53516 h -8.53125 c -4.14062,0 -7.5,3.35547 -7.5,7.5 0,4.14062 3.35938,7.5 7.5,7.5 h 8.53125 v 8.53125 c 0,4.14062 3.35938,7.5 7.5,7.5 z m 0,0"
     id="path92" />
  <path
     d="m 322.84375,274.85156 c 1.46094,1.46485 3.38281,2.19532 5.30078,2.19532 1.91797,0 3.83984,-0.73047 5.30469,-2.19532 2.92969,-2.92968 2.92969,-7.67968 0,-10.60547 l -16.03516,-16.03125 c -2.92578,-2.92968 -7.67578,-2.92968 -10.60547,0 -2.92578,2.92579 -2.92578,7.67579 0,10.60547 z m 0,0"
     id="path94" />
  <path
     d="m 181.14062,122.54297 8.01563,-8.01563 c 2.92969,-2.92968 2.92969,-7.67578 0,-10.60546 -2.92578,-2.92969 -7.67578,-2.92969 -10.60547,0 l -8.01562,8.01562 c -2.92969,2.92969 -2.92969,7.67969 0,10.60547 1.46484,1.46484 3.38671,2.19922 5.30468,2.19922 1.91797,0 3.83985,-0.73438 5.30078,-2.19922 z m 0,0"
     id="path96" />
  <path
     d="m 71.628906,229.98438 h -8.015625 c -4.140625,0 -7.5,3.35546 -7.5,7.5 0,4.14062 3.359375,7.5 7.5,7.5 h 8.015625 c 4.140625,0 7.5,-3.35938 7.5,-7.5 0,-4.14454 -3.359375,-7.5 -7.5,-7.5 z m 0,0"
     id="path98" />
  <path
     d="m 344.17578,390.30469 c -4.14062,0 -7.5,3.35937 -7.5,7.5 v 8.01562 c 0,4.14453 3.35938,7.5 7.5,7.5 4.14453,0 7.5,-3.35547 7.5,-7.5 v -8.01562 c 0,-4.14063 -3.35547,-7.5 -7.5,-7.5 z m 0,0"
     id="path100" />
</svg>
